<svg xmlns="http://www.w3.org/2000/svg" width="980" height="808" viewBox="0 0 980 808">
<rect width="100%" height="100%" fill="#ffffff"/>
<text x="28" y="36" font-family="Arial, Helvetica, sans-serif" font-size="22" font-weight="700" fill="#111111">Scientific palette preview</text>
<text x="28" y="72" font-family="Arial, Helvetica, sans-serif" font-size="15" font-weight="700" fill="#111111">okabe_ito_categorical</text>
<text x="28" y="92" font-family="Arial, Helvetica, sans-serif" font-size="12" fill="#555555">categorical - General categorical groups, line plots, bar plots, scatter groups.</text>
<rect x="28" y="104" width="34" height="34" rx="2" fill="#000000" stroke="#222222" stroke-width="0.5"/>
<text x="28" y="150" font-family="Arial, Helvetica, sans-serif" font-size="9" fill="#444444">#000000</text>
<rect x="102" y="104" width="34" height="34" rx="2" fill="#E69F00" stroke="#222222" stroke-width="0.5"/>
<text x="102" y="150" font-family="Arial, Helvetica, sans-serif" font-size="9" fill="#444444">#E69F00</text>
<rect x="176" y="104" width="34" height="34" rx="2" fill="#56B4E9" stroke="#222222" stroke-width="0.5"/>
<text x="176" y="150" font-family="Arial, Helvetica, sans-serif" font-size="9" fill="#444444">#56B4E9</text>
<rect x="250" y="104" width="34" height="34" rx="2" fill="#009E73" stroke="#222222" stroke-width="0.5"/>
<text x="250" y="150" font-family="Arial, Helvetica, sans-serif" font-size="9" fill="#444444">#009E73</text>
<rect x="324" y="104" width="34" height="34" rx="2" fill="#F0E442" stroke="#222222" stroke-width="0.5"/>
<text x="324" y="150" font-family="Arial, Helvetica, sans-serif" font-size="9" fill="#444444">#F0E442</text>
<rect x="398" y="104" width="34" height="34" rx="2" fill="#0072B2" stroke="#222222" stroke-width="0.5"/>
<text x="398" y="150" font-family="Arial, Helvetica, sans-serif" font-size="9" fill="#444444">#0072B2</text>
<rect x="472" y="104" width="34" height="34" rx="2" fill="#D55E00" stroke="#222222" stroke-width="0.5"/>
<text x="472" y="150" font-family="Arial, Helvetica, sans-serif" font-size="9" fill="#444444">#D55E00</text>
<rect x="546" y="104" width="34" height="34" rx="2" fill="#CC79A7" stroke="#222222" stroke-width="0.5"/>
<text x="546" y="150" font-family="Arial, Helvetica, sans-serif" font-size="9" fill="#444444">#CC79A7</text>
<text x="28" y="154" font-family="Arial, Helvetica, sans-serif" font-size="15" font-weight="700" fill="#111111">nature_muted_evidence</text>
<text x="28" y="174" font-family="Arial, Helvetica, sans-serif" font-size="12" fill="#555555">categorical - Nature-style multi-panel figures needing calm, low-saturation evidence colors.</text>
<rect x="28" y="186" width="34" height="34" rx="2" fill="#355C7D" stroke="#222222" stroke-width="0.5"/>
<text x="28" y="232" font-family="Arial, Helvetica, sans-serif" font-size="9" fill="#444444">#355C7D</text>
<rect x="102" y="186" width="34" height="34" rx="2" fill="#6C9A8B" stroke="#222222" stroke-width="0.5"/>
<text x="102" y="232" font-family="Arial, Helvetica, sans-serif" font-size="9" fill="#444444">#6C9A8B</text>
<rect x="176" y="186" width="34" height="34" rx="2" fill="#C06C54" stroke="#222222" stroke-width="0.5"/>
<text x="176" y="232" font-family="Arial, Helvetica, sans-serif" font-size="9" fill="#444444">#C06C54</text>
<rect x="250" y="186" width="34" height="34" rx="2" fill="#B56576" stroke="#222222" stroke-width="0.5"/>
<text x="250" y="232" font-family="Arial, Helvetica, sans-serif" font-size="9" fill="#444444">#B56576</text>
<rect x="324" y="186" width="34" height="34" rx="2" fill="#7D7C84" stroke="#222222" stroke-width="0.5"/>
<text x="324" y="232" font-family="Arial, Helvetica, sans-serif" font-size="9" fill="#444444">#7D7C84</text>
<rect x="398" y="186" width="34" height="34" rx="2" fill="#E6B655" stroke="#222222" stroke-width="0.5"/>
<text x="398" y="232" font-family="Arial, Helvetica, sans-serif" font-size="9" fill="#444444">#E6B655</text>
<rect x="472" y="186" width="34" height="34" rx="2" fill="#4C6A92" stroke="#222222" stroke-width="0.5"/>
<text x="472" y="232" font-family="Arial, Helvetica, sans-serif" font-size="9" fill="#444444">#4C6A92</text>
<rect x="546" y="186" width="34" height="34" rx="2" fill="#8AA399" stroke="#222222" stroke-width="0.5"/>
<text x="546" y="232" font-family="Arial, Helvetica, sans-serif" font-size="9" fill="#444444">#8AA399</text>
<text x="28" y="236" font-family="Arial, Helvetica, sans-serif" font-size="15" font-weight="700" fill="#111111">science_high_contrast</text>
<text x="28" y="256" font-family="Arial, Helvetica, sans-serif" font-size="12" fill="#555555">categorical - Dense comparison plots where groups must separate clearly.</text>
<rect x="28" y="268" width="34" height="34" rx="2" fill="#1F77B4" stroke="#222222" stroke-width="0.5"/>
<text x="28" y="314" font-family="Arial, Helvetica, sans-serif" font-size="9" fill="#444444">#1F77B4</text>
<rect x="102" y="268" width="34" height="34" rx="2" fill="#FF7F0E" stroke="#222222" stroke-width="0.5"/>
<text x="102" y="314" font-family="Arial, Helvetica, sans-serif" font-size="9" fill="#444444">#FF7F0E</text>
<rect x="176" y="268" width="34" height="34" rx="2" fill="#2CA02C" stroke="#222222" stroke-width="0.5"/>
<text x="176" y="314" font-family="Arial, Helvetica, sans-serif" font-size="9" fill="#444444">#2CA02C</text>
<rect x="250" y="268" width="34" height="34" rx="2" fill="#9467BD" stroke="#222222" stroke-width="0.5"/>
<text x="250" y="314" font-family="Arial, Helvetica, sans-serif" font-size="9" fill="#444444">#9467BD</text>
<rect x="324" y="268" width="34" height="34" rx="2" fill="#17BECF" stroke="#222222" stroke-width="0.5"/>
<text x="324" y="314" font-family="Arial, Helvetica, sans-serif" font-size="9" fill="#444444">#17BECF</text>
<rect x="398" y="268" width="34" height="34" rx="2" fill="#8C564B" stroke="#222222" stroke-width="0.5"/>
<text x="398" y="314" font-family="Arial, Helvetica, sans-serif" font-size="9" fill="#444444">#8C564B</text>
<rect x="472" y="268" width="34" height="34" rx="2" fill="#7F7F7F" stroke="#222222" stroke-width="0.5"/>
<text x="472" y="314" font-family="Arial, Helvetica, sans-serif" font-size="9" fill="#444444">#7F7F7F</text>
<rect x="546" y="268" width="34" height="34" rx="2" fill="#BCBD22" stroke="#222222" stroke-width="0.5"/>
<text x="546" y="314" font-family="Arial, Helvetica, sans-serif" font-size="9" fill="#444444">#BCBD22</text>
<text x="28" y="318" font-family="Arial, Helvetica, sans-serif" font-size="15" font-weight="700" fill="#111111">cell_mechanism</text>
<text x="28" y="338" font-family="Arial, Helvetica, sans-serif" font-size="12" fill="#555555">categorical - Biology, pathway, mechanism, cell-state, and schematic figures.</text>
<rect x="28" y="350" width="34" height="34" rx="2" fill="#2E5EAA" stroke="#222222" stroke-width="0.5"/>
<text x="28" y="396" font-family="Arial, Helvetica, sans-serif" font-size="9" fill="#444444">#2E5EAA</text>
<rect x="102" y="350" width="34" height="34" rx="2" fill="#00A087" stroke="#222222" stroke-width="0.5"/>
<text x="102" y="396" font-family="Arial, Helvetica, sans-serif" font-size="9" fill="#444444">#00A087</text>
<rect x="176" y="350" width="34" height="34" rx="2" fill="#E64B35" stroke="#222222" stroke-width="0.5"/>
<text x="176" y="396" font-family="Arial, Helvetica, sans-serif" font-size="9" fill="#444444">#E64B35</text>
<rect x="250" y="350" width="34" height="34" rx="2" fill="#F39B7F" stroke="#222222" stroke-width="0.5"/>
<text x="250" y="396" font-family="Arial, Helvetica, sans-serif" font-size="9" fill="#444444">#F39B7F</text>
<rect x="324" y="350" width="34" height="34" rx="2" fill="#7E6148" stroke="#222222" stroke-width="0.5"/>
<text x="324" y="396" font-family="Arial, Helvetica, sans-serif" font-size="9" fill="#444444">#7E6148</text>
<rect x="398" y="350" width="34" height="34" rx="2" fill="#3C5488" stroke="#222222" stroke-width="0.5"/>
<text x="398" y="396" font-family="Arial, Helvetica, sans-serif" font-size="9" fill="#444444">#3C5488</text>
<rect x="472" y="350" width="34" height="34" rx="2" fill="#8491B4" stroke="#222222" stroke-width="0.5"/>
<text x="472" y="396" font-family="Arial, Helvetica, sans-serif" font-size="9" fill="#444444">#8491B4</text>
<rect x="546" y="350" width="34" height="34" rx="2" fill="#4DBBD5" stroke="#222222" stroke-width="0.5"/>
<text x="546" y="396" font-family="Arial, Helvetica, sans-serif" font-size="9" fill="#444444">#4DBBD5</text>
<text x="28" y="400" font-family="Arial, Helvetica, sans-serif" font-size="15" font-weight="700" fill="#111111">clinical_neutral_accent</text>
<text x="28" y="420" font-family="Arial, Helvetica, sans-serif" font-size="12" fill="#555555">categorical - Clinical cohorts, demographic comparisons, survival plots, and restrained medical figures.</text>
<rect x="28" y="432" width="34" height="34" rx="2" fill="#4D4D4D" stroke="#222222" stroke-width="0.5"/>
<text x="28" y="478" font-family="Arial, Helvetica, sans-serif" font-size="9" fill="#444444">#4D4D4D</text>
<rect x="102" y="432" width="34" height="34" rx="2" fill="#7A7A7A" stroke="#222222" stroke-width="0.5"/>
<text x="102" y="478" font-family="Arial, Helvetica, sans-serif" font-size="9" fill="#444444">#7A7A7A</text>
<rect x="176" y="432" width="34" height="34" rx="2" fill="#BDBDBD" stroke="#222222" stroke-width="0.5"/>
<text x="176" y="478" font-family="Arial, Helvetica, sans-serif" font-size="9" fill="#444444">#BDBDBD</text>
<rect x="250" y="432" width="34" height="34" rx="2" fill="#2166AC" stroke="#222222" stroke-width="0.5"/>
<text x="250" y="478" font-family="Arial, Helvetica, sans-serif" font-size="9" fill="#444444">#2166AC</text>
<rect x="324" y="432" width="34" height="34" rx="2" fill="#67A9CF" stroke="#222222" stroke-width="0.5"/>
<text x="324" y="478" font-family="Arial, Helvetica, sans-serif" font-size="9" fill="#444444">#67A9CF</text>
<rect x="398" y="432" width="34" height="34" rx="2" fill="#D6604D" stroke="#222222" stroke-width="0.5"/>
<text x="398" y="478" font-family="Arial, Helvetica, sans-serif" font-size="9" fill="#444444">#D6604D</text>
<rect x="472" y="432" width="34" height="34" rx="2" fill="#F4A582" stroke="#222222" stroke-width="0.5"/>
<text x="472" y="478" font-family="Arial, Helvetica, sans-serif" font-size="9" fill="#444444">#F4A582</text>
<rect x="546" y="432" width="34" height="34" rx="2" fill="#1B7837" stroke="#222222" stroke-width="0.5"/>
<text x="546" y="478" font-family="Arial, Helvetica, sans-serif" font-size="9" fill="#444444">#1B7837</text>
<text x="28" y="482" font-family="Arial, Helvetica, sans-serif" font-size="15" font-weight="700" fill="#111111">earth_continuous</text>
<text x="28" y="502" font-family="Arial, Helvetica, sans-serif" font-size="12" fill="#555555">sequential - Continuous environmental, spatial, intensity, or model-output data.</text>
<rect x="28" y="514" width="34" height="34" rx="2" fill="#0D0887" stroke="#222222" stroke-width="0.5"/>
<text x="28" y="560" font-family="Arial, Helvetica, sans-serif" font-size="9" fill="#444444">#0D0887</text>
<rect x="102" y="514" width="34" height="34" rx="2" fill="#5B02A3" stroke="#222222" stroke-width="0.5"/>
<text x="102" y="560" font-family="Arial, Helvetica, sans-serif" font-size="9" fill="#444444">#5B02A3</text>
<rect x="176" y="514" width="34" height="34" rx="2" fill="#9A179B" stroke="#222222" stroke-width="0.5"/>
<text x="176" y="560" font-family="Arial, Helvetica, sans-serif" font-size="9" fill="#444444">#9A179B</text>
<rect x="250" y="514" width="34" height="34" rx="2" fill="#CB4679" stroke="#222222" stroke-width="0.5"/>
<text x="250" y="560" font-family="Arial, Helvetica, sans-serif" font-size="9" fill="#444444">#CB4679</text>
<rect x="324" y="514" width="34" height="34" rx="2" fill="#ED7953" stroke="#222222" stroke-width="0.5"/>
<text x="324" y="560" font-family="Arial, Helvetica, sans-serif" font-size="9" fill="#444444">#ED7953</text>
<rect x="398" y="514" width="34" height="34" rx="2" fill="#FBB32F" stroke="#222222" stroke-width="0.5"/>
<text x="398" y="560" font-family="Arial, Helvetica, sans-serif" font-size="9" fill="#444444">#FBB32F</text>
<rect x="472" y="514" width="34" height="34" rx="2" fill="#F0F921" stroke="#222222" stroke-width="0.5"/>
<text x="472" y="560" font-family="Arial, Helvetica, sans-serif" font-size="9" fill="#444444">#F0F921</text>
<text x="28" y="564" font-family="Arial, Helvetica, sans-serif" font-size="15" font-weight="700" fill="#111111">cividis_accessible_continuous</text>
<text x="28" y="584" font-family="Arial, Helvetica, sans-serif" font-size="12" fill="#555555">sequential - Continuous data that must remain readable for color-vision-deficient readers.</text>
<rect x="28" y="596" width="34" height="34" rx="2" fill="#00204C" stroke="#222222" stroke-width="0.5"/>
<text x="28" y="642" font-family="Arial, Helvetica, sans-serif" font-size="9" fill="#444444">#00204C</text>
<rect x="102" y="596" width="34" height="34" rx="2" fill="#123570" stroke="#222222" stroke-width="0.5"/>
<text x="102" y="642" font-family="Arial, Helvetica, sans-serif" font-size="9" fill="#444444">#123570</text>
<rect x="176" y="596" width="34" height="34" rx="2" fill="#3B496C" stroke="#222222" stroke-width="0.5"/>
<text x="176" y="642" font-family="Arial, Helvetica, sans-serif" font-size="9" fill="#444444">#3B496C</text>
<rect x="250" y="596" width="34" height="34" rx="2" fill="#575D6D" stroke="#222222" stroke-width="0.5"/>
<text x="250" y="642" font-family="Arial, Helvetica, sans-serif" font-size="9" fill="#444444">#575D6D</text>
<rect x="324" y="596" width="34" height="34" rx="2" fill="#707173" stroke="#222222" stroke-width="0.5"/>
<text x="324" y="642" font-family="Arial, Helvetica, sans-serif" font-size="9" fill="#444444">#707173</text>
<rect x="398" y="596" width="34" height="34" rx="2" fill="#8A8678" stroke="#222222" stroke-width="0.5"/>
<text x="398" y="642" font-family="Arial, Helvetica, sans-serif" font-size="9" fill="#444444">#8A8678</text>
<rect x="472" y="596" width="34" height="34" rx="2" fill="#A59C74" stroke="#222222" stroke-width="0.5"/>
<text x="472" y="642" font-family="Arial, Helvetica, sans-serif" font-size="9" fill="#444444">#A59C74</text>
<rect x="546" y="596" width="34" height="34" rx="2" fill="#C1B36D" stroke="#222222" stroke-width="0.5"/>
<text x="546" y="642" font-family="Arial, Helvetica, sans-serif" font-size="9" fill="#444444">#C1B36D</text>
<rect x="620" y="596" width="34" height="34" rx="2" fill="#DEC95F" stroke="#222222" stroke-width="0.5"/>
<text x="620" y="642" font-family="Arial, Helvetica, sans-serif" font-size="9" fill="#444444">#DEC95F</text>
<rect x="694" y="596" width="34" height="34" rx="2" fill="#FFE945" stroke="#222222" stroke-width="0.5"/>
<text x="694" y="642" font-family="Arial, Helvetica, sans-serif" font-size="9" fill="#444444">#FFE945</text>
<text x="28" y="646" font-family="Arial, Helvetica, sans-serif" font-size="15" font-weight="700" fill="#111111">blue_orange_diverging</text>
<text x="28" y="666" font-family="Arial, Helvetica, sans-serif" font-size="12" fill="#555555">diverging - Effect direction, residuals, enrichment/depletion, and signed change.</text>
<rect x="28" y="678" width="34" height="34" rx="2" fill="#2166AC" stroke="#222222" stroke-width="0.5"/>
<text x="28" y="724" font-family="Arial, Helvetica, sans-serif" font-size="9" fill="#444444">#2166AC</text>
<rect x="102" y="678" width="34" height="34" rx="2" fill="#4393C3" stroke="#222222" stroke-width="0.5"/>
<text x="102" y="724" font-family="Arial, Helvetica, sans-serif" font-size="9" fill="#444444">#4393C3</text>
<rect x="176" y="678" width="34" height="34" rx="2" fill="#92C5DE" stroke="#222222" stroke-width="0.5"/>
<text x="176" y="724" font-family="Arial, Helvetica, sans-serif" font-size="9" fill="#444444">#92C5DE</text>
<rect x="250" y="678" width="34" height="34" rx="2" fill="#F7F7F7" stroke="#222222" stroke-width="0.5"/>
<text x="250" y="724" font-family="Arial, Helvetica, sans-serif" font-size="9" fill="#444444">#F7F7F7</text>
<rect x="324" y="678" width="34" height="34" rx="2" fill="#F4A582" stroke="#222222" stroke-width="0.5"/>
<text x="324" y="724" font-family="Arial, Helvetica, sans-serif" font-size="9" fill="#444444">#F4A582</text>
<rect x="398" y="678" width="34" height="34" rx="2" fill="#D6604D" stroke="#222222" stroke-width="0.5"/>
<text x="398" y="724" font-family="Arial, Helvetica, sans-serif" font-size="9" fill="#444444">#D6604D</text>
<rect x="472" y="678" width="34" height="34" rx="2" fill="#B2182B" stroke="#222222" stroke-width="0.5"/>
<text x="472" y="724" font-family="Arial, Helvetica, sans-serif" font-size="9" fill="#444444">#B2182B</text>
<text x="28" y="728" font-family="Arial, Helvetica, sans-serif" font-size="15" font-weight="700" fill="#111111">grayscale_with_accent</text>
<text x="28" y="748" font-family="Arial, Helvetica, sans-serif" font-size="12" fill="#555555">categorical - Print-safe figures, methods diagrams, and figures where one finding needs emphasis.</text>
<rect x="28" y="760" width="34" height="34" rx="2" fill="#111111" stroke="#222222" stroke-width="0.5"/>
<text x="28" y="806" font-family="Arial, Helvetica, sans-serif" font-size="9" fill="#444444">#111111</text>
<rect x="102" y="760" width="34" height="34" rx="2" fill="#4D4D4D" stroke="#222222" stroke-width="0.5"/>
<text x="102" y="806" font-family="Arial, Helvetica, sans-serif" font-size="9" fill="#444444">#4D4D4D</text>
<rect x="176" y="760" width="34" height="34" rx="2" fill="#7A7A7A" stroke="#222222" stroke-width="0.5"/>
<text x="176" y="806" font-family="Arial, Helvetica, sans-serif" font-size="9" fill="#444444">#7A7A7A</text>
<rect x="250" y="760" width="34" height="34" rx="2" fill="#BDBDBD" stroke="#222222" stroke-width="0.5"/>
<text x="250" y="806" font-family="Arial, Helvetica, sans-serif" font-size="9" fill="#444444">#BDBDBD</text>
<rect x="324" y="760" width="34" height="34" rx="2" fill="#E0E0E0" stroke="#222222" stroke-width="0.5"/>
<text x="324" y="806" font-family="Arial, Helvetica, sans-serif" font-size="9" fill="#444444">#E0E0E0</text>
<rect x="398" y="760" width="34" height="34" rx="2" fill="#0072B2" stroke="#222222" stroke-width="0.5"/>
<text x="398" y="806" font-family="Arial, Helvetica, sans-serif" font-size="9" fill="#444444">#0072B2</text>
<rect x="472" y="760" width="34" height="34" rx="2" fill="#D55E00" stroke="#222222" stroke-width="0.5"/>
<text x="472" y="806" font-family="Arial, Helvetica, sans-serif" font-size="9" fill="#444444">#D55E00</text>
</svg>
